<?xml version="1.0" standalone="no"?>
<!DOCTYPE svg PUBLIC "-//W3C//DTD SVG 20010904//EN"
 "http://www.w3.org/TR/2001/REC-SVG-20010904/DTD/svg10.dtd">
<svg version="1.0" xmlns="http://www.w3.org/2000/svg"
 width="278.000000pt" height="100.000000pt" viewBox="0 0 278.000000 100.000000"
 preserveAspectRatio="xMidYMid meet">

<g transform="translate(0.000000,100.000000) scale(0.100000,-0.100000)"
fill="#000000" stroke="none">
<path d="M854 810 c-67 -27 -123 -76 -159 -141 -28 -50 -30 -61 -30 -159 0
-95 3 -110 27 -156 47 -90 133 -148 237 -162 82 -12 171 1 237 33 l55 27 -42
76 c-58 108 -54 104 -100 81 -79 -42 -168 -19 -204 51 -27 52 -11 108 41 149
34 27 106 28 157 2 l37 -19 18 32 c11 17 34 57 51 89 l33 57 -59 27 c-80 37
-222 43 -299 13z m226 -86 c7 -7 -16 -9 -72 -6 -73 3 -88 1 -128 -20 -30 -16
-55 -41 -75 -73 -26 -41 -30 -58 -30 -114 1 -128 70 -202 196 -209 38 -2 82 1
99 6 16 6 30 7 30 2 0 -16 -73 -32 -130 -28 -105 8 -187 77 -209 176 -25 118
43 236 157 273 35 11 149 6 162 -7z"/>
<path d="M2214 810 c-67 -27 -123 -76 -159 -141 -28 -50 -30 -61 -30 -159 0
-95 3 -110 27 -156 47 -90 133 -148 237 -162 82 -12 171 1 237 33 l55 27 -42
76 c-58 108 -54 104 -100 81 -79 -42 -168 -19 -204 51 -27 52 -11 108 41 149
34 27 106 28 157 2 l37 -19 18 32 c11 17 34 57 51 89 l33 57 -59 27 c-80 37
-222 43 -299 13z m226 -86 c7 -7 -16 -9 -72 -6 -73 3 -88 1 -128 -20 -30 -16
-55 -41 -75 -73 -26 -41 -30 -58 -30 -114 1 -128 70 -202 196 -209 38 -2 82 1
99 6 16 6 30 7 30 2 0 -16 -73 -32 -130 -28 -105 8 -187 77 -209 176 -25 118
43 236 157 273 35 11 149 6 162 -7z"/>
<path d="M220 735 l0 -85 55 0 55 0 0 -225 0 -225 105 0 105 0 0 225 0 225 55
0 55 0 0 85 0 85 -215 0 -215 0 0 -85z m350 -5 c0 -6 -28 -10 -65 -10 l-65 0
-2 -222 -3 -223 -2 223 -3 222 -65 0 c-35 0 -67 5 -70 10 -4 6 43 10 134 10
87 0 141 -4 141 -10z"/>
<path d="M1230 510 l0 -310 105 0 105 0 0 310 0 310 -105 0 -105 0 0 -310z
m120 0 c0 -147 -4 -230 -10 -230 -6 0 -10 83 -10 230 0 147 4 230 10 230 6 0
10 -83 10 -230z"/>
<path d="M1500 511 l0 -311 100 0 99 0 3 71 3 72 40 -72 40 -71 118 0 c64 0
117 3 117 8 0 4 -25 50 -55 102 l-54 95 24 25 c76 80 72 227 -9 313 -53 57
-105 71 -273 75 l-153 4 0 -311z m306 203 c106 -55 114 -205 14 -262 -33 -19
-36 -29 -17 -57 36 -52 68 -115 59 -115 -5 0 -29 34 -53 76 -36 62 -47 74 -64
70 -11 -3 -44 -6 -72 -6 l-53 0 0 -70 c0 -40 -4 -70 -10 -70 -6 0 -10 84 -10
231 l0 232 83 -5 c57 -3 96 -11 123 -24z"/>
<path d="M1620 580 l0 -140 70 0 c126 0 172 35 178 133 3 53 1 66 -19 91 -31
40 -77 56 -159 56 l-70 0 0 -140z m124 60 c71 -27 47 -119 -31 -120 -9 0 -13
20 -13 65 0 68 3 71 44 55z"/>
</g>
</svg>
